<mxfile host="app.diagrams.net" modified="2023-12-02T15:55:02.012Z" agent="Mozilla/5.0 (Windows NT 10.0; Win64; x64) AppleWebKit/537.36 (KHTML, like Gecko) Chrome/119.0.0.0 Safari/537.36 Edg/119.0.0.0" etag="VVg_VbxA1Yl2TBa3aTpF" version="22.1.4" type="device">
  <diagram name="1 oldal" id="RWpSWhDXgqAXrD_5BkzI">
    <mxGraphModel dx="3504" dy="1068" grid="1" gridSize="10" guides="1" tooltips="1" connect="1" arrows="1" fold="1" page="0" pageScale="1" pageWidth="827" pageHeight="1169" math="0" shadow="0">
      <root>
        <mxCell id="0" />
        <mxCell id="1" parent="0" />
        <mxCell id="kx_KfZfGUG_8lvPHREMR-1" value="F4IIYA_Táncverseny" style="ellipse;whiteSpace=wrap;html=1;" parent="1" vertex="1">
          <mxGeometry x="80" y="-130" width="120" height="50" as="geometry" />
        </mxCell>
        <mxCell id="kx_KfZfGUG_8lvPHREMR-4" value="Csoport" style="ellipse;shape=doubleEllipse;margin=3;whiteSpace=wrap;html=1;align=center;" parent="1" vertex="1">
          <mxGeometry x="810" y="35" width="110" height="50" as="geometry" />
        </mxCell>
        <mxCell id="kx_KfZfGUG_8lvPHREMR-5" value="Versenyző" style="ellipse;shape=doubleEllipse;margin=3;whiteSpace=wrap;html=1;align=center;" parent="1" vertex="1">
          <mxGeometry x="1590" y="35" width="110" height="50" as="geometry" />
        </mxCell>
        <mxCell id="kx_KfZfGUG_8lvPHREMR-6" value="Versenyhelyszín" style="ellipse;shape=doubleEllipse;margin=3;whiteSpace=wrap;html=1;align=center;" parent="1" vertex="1">
          <mxGeometry x="-945" y="35" width="115" height="50" as="geometry" />
        </mxCell>
        <mxCell id="kx_KfZfGUG_8lvPHREMR-7" value="Tánc" style="ellipse;shape=doubleEllipse;margin=3;whiteSpace=wrap;html=1;align=center;" parent="1" vertex="1">
          <mxGeometry x="84" y="30" width="110" height="50" as="geometry" />
        </mxCell>
        <mxCell id="kx_KfZfGUG_8lvPHREMR-8" value="Zene" style="ellipse;shape=doubleEllipse;margin=3;whiteSpace=wrap;html=1;align=center;" parent="1" vertex="1">
          <mxGeometry x="-1760" y="35" width="110" height="50" as="geometry" />
        </mxCell>
        <mxCell id="kx_KfZfGUG_8lvPHREMR-9" value="" style="endArrow=none;html=1;rounded=0;exitX=0.5;exitY=0;exitDx=0;exitDy=0;entryX=0.5;entryY=1;entryDx=0;entryDy=0;" parent="1" source="kx_KfZfGUG_8lvPHREMR-4" target="kx_KfZfGUG_8lvPHREMR-1" edge="1">
          <mxGeometry width="50" height="50" relative="1" as="geometry">
            <mxPoint x="280" y="120" as="sourcePoint" />
            <mxPoint x="330" y="70" as="targetPoint" />
            <Array as="points" />
          </mxGeometry>
        </mxCell>
        <mxCell id="kx_KfZfGUG_8lvPHREMR-10" value="" style="endArrow=none;html=1;rounded=0;exitX=0.5;exitY=0;exitDx=0;exitDy=0;entryX=0.5;entryY=1;entryDx=0;entryDy=0;" parent="1" source="kx_KfZfGUG_8lvPHREMR-7" target="kx_KfZfGUG_8lvPHREMR-1" edge="1">
          <mxGeometry width="50" height="50" relative="1" as="geometry">
            <mxPoint x="280" y="175" as="sourcePoint" />
            <mxPoint x="80" y="-65" as="targetPoint" />
          </mxGeometry>
        </mxCell>
        <mxCell id="kx_KfZfGUG_8lvPHREMR-11" value="" style="endArrow=none;html=1;rounded=0;exitX=0.5;exitY=0;exitDx=0;exitDy=0;entryX=0.5;entryY=1;entryDx=0;entryDy=0;" parent="1" source="kx_KfZfGUG_8lvPHREMR-6" target="kx_KfZfGUG_8lvPHREMR-1" edge="1">
          <mxGeometry width="50" height="50" relative="1" as="geometry">
            <mxPoint x="280" y="120" as="sourcePoint" />
            <mxPoint x="330" y="70" as="targetPoint" />
          </mxGeometry>
        </mxCell>
        <mxCell id="kx_KfZfGUG_8lvPHREMR-12" value="" style="endArrow=none;html=1;rounded=0;exitX=0.5;exitY=0;exitDx=0;exitDy=0;entryX=0.5;entryY=1;entryDx=0;entryDy=0;" parent="1" source="kx_KfZfGUG_8lvPHREMR-5" target="kx_KfZfGUG_8lvPHREMR-1" edge="1">
          <mxGeometry width="50" height="50" relative="1" as="geometry">
            <mxPoint x="280" y="120" as="sourcePoint" />
            <mxPoint x="330" y="70" as="targetPoint" />
          </mxGeometry>
        </mxCell>
        <mxCell id="kx_KfZfGUG_8lvPHREMR-13" value="" style="endArrow=none;html=1;rounded=0;exitX=0.5;exitY=0;exitDx=0;exitDy=0;entryX=0.5;entryY=1;entryDx=0;entryDy=0;" parent="1" source="kx_KfZfGUG_8lvPHREMR-8" target="kx_KfZfGUG_8lvPHREMR-1" edge="1">
          <mxGeometry width="50" height="50" relative="1" as="geometry">
            <mxPoint x="280" y="120" as="sourcePoint" />
            <mxPoint x="330" y="70" as="targetPoint" />
            <Array as="points" />
          </mxGeometry>
        </mxCell>
        <mxCell id="kx_KfZfGUG_8lvPHREMR-14" value="Tagok száma" style="ellipse;whiteSpace=wrap;html=1;" parent="1" vertex="1">
          <mxGeometry x="610" y="135" width="120" height="50" as="geometry" />
        </mxCell>
        <mxCell id="kx_KfZfGUG_8lvPHREMR-18" value="Név" style="ellipse;whiteSpace=wrap;html=1;" parent="1" vertex="1">
          <mxGeometry x="740" y="135" width="120" height="50" as="geometry" />
        </mxCell>
        <mxCell id="kx_KfZfGUG_8lvPHREMR-19" value="Egyesület" style="ellipse;whiteSpace=wrap;html=1;" parent="1" vertex="1">
          <mxGeometry x="870" y="135" width="120" height="50" as="geometry" />
        </mxCell>
        <mxCell id="kx_KfZfGUG_8lvPHREMR-20" value="Korcsoport" style="ellipse;shape=doubleEllipse;margin=3;whiteSpace=wrap;html=1;align=center;" parent="1" vertex="1">
          <mxGeometry x="1000" y="135" width="110" height="50" as="geometry" />
        </mxCell>
        <mxCell id="kx_KfZfGUG_8lvPHREMR-21" value="" style="endArrow=none;html=1;rounded=0;exitX=0.5;exitY=0;exitDx=0;exitDy=0;entryX=0.5;entryY=1;entryDx=0;entryDy=0;" parent="1" source="kx_KfZfGUG_8lvPHREMR-14" target="kx_KfZfGUG_8lvPHREMR-4" edge="1">
          <mxGeometry width="50" height="50" relative="1" as="geometry">
            <mxPoint x="770" y="35" as="sourcePoint" />
            <mxPoint x="730" y="40" as="targetPoint" />
          </mxGeometry>
        </mxCell>
        <mxCell id="kx_KfZfGUG_8lvPHREMR-22" value="" style="endArrow=none;html=1;rounded=0;exitX=0.5;exitY=0;exitDx=0;exitDy=0;entryX=0.5;entryY=1;entryDx=0;entryDy=0;" parent="1" source="kx_KfZfGUG_8lvPHREMR-18" target="kx_KfZfGUG_8lvPHREMR-4" edge="1">
          <mxGeometry width="50" height="50" relative="1" as="geometry">
            <mxPoint x="770" y="35" as="sourcePoint" />
            <mxPoint x="960" y="40" as="targetPoint" />
            <Array as="points" />
          </mxGeometry>
        </mxCell>
        <mxCell id="kx_KfZfGUG_8lvPHREMR-23" value="" style="endArrow=none;html=1;rounded=0;exitX=0.5;exitY=0;exitDx=0;exitDy=0;entryX=0.5;entryY=1;entryDx=0;entryDy=0;" parent="1" source="kx_KfZfGUG_8lvPHREMR-19" target="kx_KfZfGUG_8lvPHREMR-4" edge="1">
          <mxGeometry width="50" height="50" relative="1" as="geometry">
            <mxPoint x="770" y="35" as="sourcePoint" />
            <mxPoint x="970" y="30" as="targetPoint" />
          </mxGeometry>
        </mxCell>
        <mxCell id="kx_KfZfGUG_8lvPHREMR-24" value="" style="endArrow=none;html=1;rounded=0;exitX=0.5;exitY=0;exitDx=0;exitDy=0;entryX=0.5;entryY=1;entryDx=0;entryDy=0;" parent="1" source="kx_KfZfGUG_8lvPHREMR-20" target="kx_KfZfGUG_8lvPHREMR-4" edge="1">
          <mxGeometry width="50" height="50" relative="1" as="geometry">
            <mxPoint x="770" y="35" as="sourcePoint" />
            <mxPoint x="990" y="50" as="targetPoint" />
          </mxGeometry>
        </mxCell>
        <mxCell id="kx_KfZfGUG_8lvPHREMR-25" value="Hossz" style="ellipse;whiteSpace=wrap;html=1;" parent="1" vertex="1">
          <mxGeometry x="219" y="130" width="120" height="50" as="geometry" />
        </mxCell>
        <mxCell id="kx_KfZfGUG_8lvPHREMR-26" value="Név" style="ellipse;whiteSpace=wrap;html=1;" parent="1" vertex="1">
          <mxGeometry x="79" y="130" width="120" height="50" as="geometry" />
        </mxCell>
        <mxCell id="kx_KfZfGUG_8lvPHREMR-27" value="Műfaj" style="ellipse;whiteSpace=wrap;html=1;" parent="1" vertex="1">
          <mxGeometry x="-61" y="130" width="120" height="50" as="geometry" />
        </mxCell>
        <mxCell id="kx_KfZfGUG_8lvPHREMR-28" value="" style="endArrow=none;html=1;rounded=0;exitX=0.5;exitY=0;exitDx=0;exitDy=0;entryX=0.5;entryY=1;entryDx=0;entryDy=0;" parent="1" source="kx_KfZfGUG_8lvPHREMR-27" target="kx_KfZfGUG_8lvPHREMR-7" edge="1">
          <mxGeometry width="50" height="50" relative="1" as="geometry">
            <mxPoint x="-21" y="40" as="sourcePoint" />
            <mxPoint x="139" y="90" as="targetPoint" />
          </mxGeometry>
        </mxCell>
        <mxCell id="kx_KfZfGUG_8lvPHREMR-30" value="" style="endArrow=none;html=1;rounded=0;exitX=0.5;exitY=0;exitDx=0;exitDy=0;entryX=0.5;entryY=1;entryDx=0;entryDy=0;" parent="1" source="kx_KfZfGUG_8lvPHREMR-25" target="kx_KfZfGUG_8lvPHREMR-7" edge="1">
          <mxGeometry width="50" height="50" relative="1" as="geometry">
            <mxPoint x="-21" y="40" as="sourcePoint" />
            <mxPoint x="139" y="90" as="targetPoint" />
          </mxGeometry>
        </mxCell>
        <mxCell id="kx_KfZfGUG_8lvPHREMR-31" value="Cím" style="ellipse;whiteSpace=wrap;html=1;" parent="1" vertex="1">
          <mxGeometry x="-650" y="135" width="120" height="50" as="geometry" />
        </mxCell>
        <mxCell id="kx_KfZfGUG_8lvPHREMR-32" value="Befogadókép" style="ellipse;whiteSpace=wrap;html=1;" parent="1" vertex="1">
          <mxGeometry x="-880" y="135" width="120" height="50" as="geometry" />
        </mxCell>
        <mxCell id="kx_KfZfGUG_8lvPHREMR-33" value="Terület" style="ellipse;whiteSpace=wrap;html=1;" parent="1" vertex="1">
          <mxGeometry x="-1020" y="135" width="120" height="50" as="geometry" />
        </mxCell>
        <mxCell id="kx_KfZfGUG_8lvPHREMR-34" value="Név" style="ellipse;whiteSpace=wrap;html=1;" parent="1" vertex="1">
          <mxGeometry x="-1160" y="135" width="120" height="50" as="geometry" />
        </mxCell>
        <mxCell id="kx_KfZfGUG_8lvPHREMR-35" value="" style="endArrow=none;html=1;rounded=0;exitX=0.5;exitY=0;exitDx=0;exitDy=0;entryX=0.5;entryY=1;entryDx=0;entryDy=0;" parent="1" source="kx_KfZfGUG_8lvPHREMR-34" target="kx_KfZfGUG_8lvPHREMR-6" edge="1">
          <mxGeometry width="50" height="50" relative="1" as="geometry">
            <mxPoint x="-980" y="95" as="sourcePoint" />
            <mxPoint x="-930" y="45" as="targetPoint" />
          </mxGeometry>
        </mxCell>
        <mxCell id="kx_KfZfGUG_8lvPHREMR-36" value="" style="endArrow=none;html=1;rounded=0;exitX=0.5;exitY=0;exitDx=0;exitDy=0;entryX=0.5;entryY=1;entryDx=0;entryDy=0;" parent="1" source="kx_KfZfGUG_8lvPHREMR-33" target="kx_KfZfGUG_8lvPHREMR-6" edge="1">
          <mxGeometry width="50" height="50" relative="1" as="geometry">
            <mxPoint x="-980" y="95" as="sourcePoint" />
            <mxPoint x="-930" y="45" as="targetPoint" />
          </mxGeometry>
        </mxCell>
        <mxCell id="kx_KfZfGUG_8lvPHREMR-37" value="" style="endArrow=none;html=1;rounded=0;exitX=0.5;exitY=0;exitDx=0;exitDy=0;entryX=0.5;entryY=1;entryDx=0;entryDy=0;" parent="1" source="kx_KfZfGUG_8lvPHREMR-32" target="kx_KfZfGUG_8lvPHREMR-6" edge="1">
          <mxGeometry width="50" height="50" relative="1" as="geometry">
            <mxPoint x="-980" y="95" as="sourcePoint" />
            <mxPoint x="-930" y="45" as="targetPoint" />
          </mxGeometry>
        </mxCell>
        <mxCell id="kx_KfZfGUG_8lvPHREMR-38" value="" style="endArrow=none;html=1;rounded=0;exitX=0.5;exitY=0;exitDx=0;exitDy=0;entryX=0.5;entryY=1;entryDx=0;entryDy=0;" parent="1" source="kx_KfZfGUG_8lvPHREMR-31" target="kx_KfZfGUG_8lvPHREMR-6" edge="1">
          <mxGeometry width="50" height="50" relative="1" as="geometry">
            <mxPoint x="-980" y="95" as="sourcePoint" />
            <mxPoint x="-930" y="45" as="targetPoint" />
          </mxGeometry>
        </mxCell>
        <mxCell id="kx_KfZfGUG_8lvPHREMR-39" value="Irányítószám" style="ellipse;whiteSpace=wrap;html=1;" parent="1" vertex="1">
          <mxGeometry x="-780" y="227.5" width="120" height="50" as="geometry" />
        </mxCell>
        <mxCell id="kx_KfZfGUG_8lvPHREMR-40" value="Város" style="ellipse;whiteSpace=wrap;html=1;" parent="1" vertex="1">
          <mxGeometry x="-650" y="227.5" width="120" height="50" as="geometry" />
        </mxCell>
        <mxCell id="kx_KfZfGUG_8lvPHREMR-41" value="Utca, házszám" style="ellipse;whiteSpace=wrap;html=1;" parent="1" vertex="1">
          <mxGeometry x="-510" y="227.5" width="120" height="50" as="geometry" />
        </mxCell>
        <mxCell id="kx_KfZfGUG_8lvPHREMR-42" value="" style="endArrow=none;html=1;rounded=0;exitX=0.5;exitY=0;exitDx=0;exitDy=0;entryX=0.5;entryY=1;entryDx=0;entryDy=0;" parent="1" source="kx_KfZfGUG_8lvPHREMR-39" target="kx_KfZfGUG_8lvPHREMR-31" edge="1">
          <mxGeometry width="50" height="50" relative="1" as="geometry">
            <mxPoint x="-800" y="175" as="sourcePoint" />
            <mxPoint x="-750" y="125" as="targetPoint" />
          </mxGeometry>
        </mxCell>
        <mxCell id="kx_KfZfGUG_8lvPHREMR-43" value="" style="endArrow=none;html=1;rounded=0;exitX=0.5;exitY=0;exitDx=0;exitDy=0;entryX=0.5;entryY=1;entryDx=0;entryDy=0;" parent="1" source="kx_KfZfGUG_8lvPHREMR-40" target="kx_KfZfGUG_8lvPHREMR-31" edge="1">
          <mxGeometry width="50" height="50" relative="1" as="geometry">
            <mxPoint x="-800" y="175" as="sourcePoint" />
            <mxPoint x="-750" y="125" as="targetPoint" />
          </mxGeometry>
        </mxCell>
        <mxCell id="kx_KfZfGUG_8lvPHREMR-44" value="" style="endArrow=none;html=1;rounded=0;exitX=0.5;exitY=0;exitDx=0;exitDy=0;entryX=0.5;entryY=1;entryDx=0;entryDy=0;" parent="1" source="kx_KfZfGUG_8lvPHREMR-41" target="kx_KfZfGUG_8lvPHREMR-31" edge="1">
          <mxGeometry width="50" height="50" relative="1" as="geometry">
            <mxPoint x="-800" y="175" as="sourcePoint" />
            <mxPoint x="-750" y="125" as="targetPoint" />
          </mxGeometry>
        </mxCell>
        <mxCell id="kx_KfZfGUG_8lvPHREMR-45" value="Életkor" style="ellipse;whiteSpace=wrap;html=1;align=center;dashed=1;" parent="1" vertex="1">
          <mxGeometry x="1370" y="135" width="120" height="50" as="geometry" />
        </mxCell>
        <mxCell id="kx_KfZfGUG_8lvPHREMR-46" value="Szül.dátum" style="ellipse;whiteSpace=wrap;html=1;" parent="1" vertex="1">
          <mxGeometry x="1650" y="135" width="120" height="50" as="geometry" />
        </mxCell>
        <mxCell id="kx_KfZfGUG_8lvPHREMR-47" value="Név" style="ellipse;whiteSpace=wrap;html=1;" parent="1" vertex="1">
          <mxGeometry x="1510" y="135" width="120" height="50" as="geometry" />
        </mxCell>
        <mxCell id="kx_KfZfGUG_8lvPHREMR-48" value="Lakcím" style="ellipse;whiteSpace=wrap;html=1;" parent="1" vertex="1">
          <mxGeometry x="1890" y="135" width="120" height="50" as="geometry" />
        </mxCell>
        <mxCell id="kx_KfZfGUG_8lvPHREMR-49" value="" style="endArrow=none;html=1;rounded=0;exitX=0.5;exitY=0;exitDx=0;exitDy=0;entryX=0.5;entryY=1;entryDx=0;entryDy=0;" parent="1" source="kx_KfZfGUG_8lvPHREMR-45" target="kx_KfZfGUG_8lvPHREMR-5" edge="1">
          <mxGeometry width="50" height="50" relative="1" as="geometry">
            <mxPoint x="1610" y="165" as="sourcePoint" />
            <mxPoint x="1660" y="115" as="targetPoint" />
          </mxGeometry>
        </mxCell>
        <mxCell id="kx_KfZfGUG_8lvPHREMR-50" value="" style="endArrow=none;html=1;rounded=0;exitX=0.5;exitY=0;exitDx=0;exitDy=0;entryX=0.5;entryY=1;entryDx=0;entryDy=0;" parent="1" source="kx_KfZfGUG_8lvPHREMR-47" target="kx_KfZfGUG_8lvPHREMR-5" edge="1">
          <mxGeometry width="50" height="50" relative="1" as="geometry">
            <mxPoint x="1610" y="165" as="sourcePoint" />
            <mxPoint x="1660" y="115" as="targetPoint" />
          </mxGeometry>
        </mxCell>
        <mxCell id="kx_KfZfGUG_8lvPHREMR-51" value="" style="endArrow=none;html=1;rounded=0;exitX=0.5;exitY=0;exitDx=0;exitDy=0;entryX=0.5;entryY=1;entryDx=0;entryDy=0;" parent="1" source="kx_KfZfGUG_8lvPHREMR-46" target="kx_KfZfGUG_8lvPHREMR-5" edge="1">
          <mxGeometry width="50" height="50" relative="1" as="geometry">
            <mxPoint x="1610" y="165" as="sourcePoint" />
            <mxPoint x="1540" y="85" as="targetPoint" />
          </mxGeometry>
        </mxCell>
        <mxCell id="kx_KfZfGUG_8lvPHREMR-52" value="" style="endArrow=none;html=1;rounded=0;exitX=0.5;exitY=0;exitDx=0;exitDy=0;entryX=0.5;entryY=1;entryDx=0;entryDy=0;" parent="1" source="kx_KfZfGUG_8lvPHREMR-48" target="kx_KfZfGUG_8lvPHREMR-5" edge="1">
          <mxGeometry width="50" height="50" relative="1" as="geometry">
            <mxPoint x="1610" y="165" as="sourcePoint" />
            <mxPoint x="1660" y="115" as="targetPoint" />
          </mxGeometry>
        </mxCell>
        <mxCell id="kx_KfZfGUG_8lvPHREMR-53" value="Irányítószám" style="ellipse;whiteSpace=wrap;html=1;" parent="1" vertex="1">
          <mxGeometry x="1760" y="230" width="120" height="50" as="geometry" />
        </mxCell>
        <mxCell id="kx_KfZfGUG_8lvPHREMR-54" value="Város" style="ellipse;whiteSpace=wrap;html=1;" parent="1" vertex="1">
          <mxGeometry x="1890" y="230" width="120" height="50" as="geometry" />
        </mxCell>
        <mxCell id="kx_KfZfGUG_8lvPHREMR-55" value="Utca, házszám" style="ellipse;whiteSpace=wrap;html=1;" parent="1" vertex="1">
          <mxGeometry x="2020" y="230" width="120" height="50" as="geometry" />
        </mxCell>
        <mxCell id="kx_KfZfGUG_8lvPHREMR-56" value="" style="endArrow=none;html=1;rounded=0;exitX=0.5;exitY=0;exitDx=0;exitDy=0;entryX=0.5;entryY=1;entryDx=0;entryDy=0;" parent="1" source="kx_KfZfGUG_8lvPHREMR-53" target="kx_KfZfGUG_8lvPHREMR-48" edge="1">
          <mxGeometry width="50" height="50" relative="1" as="geometry">
            <mxPoint x="1730" y="330" as="sourcePoint" />
            <mxPoint x="1780" y="280" as="targetPoint" />
          </mxGeometry>
        </mxCell>
        <mxCell id="kx_KfZfGUG_8lvPHREMR-57" value="" style="endArrow=none;html=1;rounded=0;exitX=0.5;exitY=0;exitDx=0;exitDy=0;entryX=0.5;entryY=1;entryDx=0;entryDy=0;" parent="1" source="kx_KfZfGUG_8lvPHREMR-54" target="kx_KfZfGUG_8lvPHREMR-48" edge="1">
          <mxGeometry width="50" height="50" relative="1" as="geometry">
            <mxPoint x="1730" y="330" as="sourcePoint" />
            <mxPoint x="1780" y="280" as="targetPoint" />
          </mxGeometry>
        </mxCell>
        <mxCell id="kx_KfZfGUG_8lvPHREMR-58" value="" style="endArrow=none;html=1;rounded=0;exitX=0.5;exitY=0;exitDx=0;exitDy=0;entryX=0.5;entryY=1;entryDx=0;entryDy=0;" parent="1" source="kx_KfZfGUG_8lvPHREMR-55" target="kx_KfZfGUG_8lvPHREMR-48" edge="1">
          <mxGeometry width="50" height="50" relative="1" as="geometry">
            <mxPoint x="1730" y="330" as="sourcePoint" />
            <mxPoint x="1780" y="280" as="targetPoint" />
          </mxGeometry>
        </mxCell>
        <mxCell id="kx_KfZfGUG_8lvPHREMR-59" value="Előadó" style="ellipse;whiteSpace=wrap;html=1;" parent="1" vertex="1">
          <mxGeometry x="-1550" y="135" width="120" height="50" as="geometry" />
        </mxCell>
        <mxCell id="kx_KfZfGUG_8lvPHREMR-60" value="Műfaj" style="ellipse;whiteSpace=wrap;html=1;" parent="1" vertex="1">
          <mxGeometry x="-1690" y="135" width="120" height="50" as="geometry" />
        </mxCell>
        <mxCell id="kx_KfZfGUG_8lvPHREMR-61" value="Hossz" style="ellipse;whiteSpace=wrap;html=1;" parent="1" vertex="1">
          <mxGeometry x="-1830" y="135" width="120" height="50" as="geometry" />
        </mxCell>
        <mxCell id="kx_KfZfGUG_8lvPHREMR-62" value="Cím" style="ellipse;whiteSpace=wrap;html=1;" parent="1" vertex="1">
          <mxGeometry x="-1970" y="135" width="120" height="50" as="geometry" />
        </mxCell>
        <mxCell id="kx_KfZfGUG_8lvPHREMR-63" value="" style="endArrow=none;html=1;rounded=0;exitX=0.5;exitY=0;exitDx=0;exitDy=0;entryX=0.5;entryY=1;entryDx=0;entryDy=0;" parent="1" source="kx_KfZfGUG_8lvPHREMR-62" target="kx_KfZfGUG_8lvPHREMR-8" edge="1">
          <mxGeometry width="50" height="50" relative="1" as="geometry">
            <mxPoint x="-1750" y="125" as="sourcePoint" />
            <mxPoint x="-1700" y="75" as="targetPoint" />
          </mxGeometry>
        </mxCell>
        <mxCell id="kx_KfZfGUG_8lvPHREMR-64" value="" style="endArrow=none;html=1;rounded=0;exitX=0.5;exitY=0;exitDx=0;exitDy=0;entryX=0.5;entryY=1;entryDx=0;entryDy=0;" parent="1" source="kx_KfZfGUG_8lvPHREMR-61" target="kx_KfZfGUG_8lvPHREMR-8" edge="1">
          <mxGeometry width="50" height="50" relative="1" as="geometry">
            <mxPoint x="-1750" y="125" as="sourcePoint" />
            <mxPoint x="-1700" y="75" as="targetPoint" />
          </mxGeometry>
        </mxCell>
        <mxCell id="kx_KfZfGUG_8lvPHREMR-65" value="" style="endArrow=none;html=1;rounded=0;exitX=0.5;exitY=0;exitDx=0;exitDy=0;entryX=0.5;entryY=1;entryDx=0;entryDy=0;" parent="1" source="kx_KfZfGUG_8lvPHREMR-60" target="kx_KfZfGUG_8lvPHREMR-8" edge="1">
          <mxGeometry width="50" height="50" relative="1" as="geometry">
            <mxPoint x="-1750" y="125" as="sourcePoint" />
            <mxPoint x="-1700" y="75" as="targetPoint" />
          </mxGeometry>
        </mxCell>
        <mxCell id="kx_KfZfGUG_8lvPHREMR-66" value="" style="endArrow=none;html=1;rounded=0;exitX=0.5;exitY=0;exitDx=0;exitDy=0;entryX=0.5;entryY=1;entryDx=0;entryDy=0;" parent="1" source="kx_KfZfGUG_8lvPHREMR-59" target="kx_KfZfGUG_8lvPHREMR-8" edge="1">
          <mxGeometry width="50" height="50" relative="1" as="geometry">
            <mxPoint x="-1750" y="125" as="sourcePoint" />
            <mxPoint x="-1700" y="75" as="targetPoint" />
          </mxGeometry>
        </mxCell>
        <mxCell id="kx_KfZfGUG_8lvPHREMR-67" value="Csoport_ID" style="rhombus;whiteSpace=wrap;html=1;" parent="1" vertex="1">
          <mxGeometry x="510" y="120" width="80" height="80" as="geometry" />
        </mxCell>
        <mxCell id="kx_KfZfGUG_8lvPHREMR-68" value="" style="endArrow=none;html=1;rounded=0;exitX=0.5;exitY=0;exitDx=0;exitDy=0;entryX=0.44;entryY=1.005;entryDx=0;entryDy=0;entryPerimeter=0;" parent="1" source="kx_KfZfGUG_8lvPHREMR-67" target="kx_KfZfGUG_8lvPHREMR-4" edge="1">
          <mxGeometry width="50" height="50" relative="1" as="geometry">
            <mxPoint x="740" y="185" as="sourcePoint" />
            <mxPoint x="790" y="135" as="targetPoint" />
          </mxGeometry>
        </mxCell>
        <mxCell id="kx_KfZfGUG_8lvPHREMR-69" value="" style="endArrow=none;html=1;rounded=0;exitX=0.1;exitY=0.592;exitDx=0;exitDy=0;exitPerimeter=0;" parent="1" source="kx_KfZfGUG_8lvPHREMR-67" edge="1">
          <mxGeometry relative="1" as="geometry">
            <mxPoint x="460" y="170" as="sourcePoint" />
            <mxPoint x="580" y="167" as="targetPoint" />
          </mxGeometry>
        </mxCell>
        <mxCell id="kx_KfZfGUG_8lvPHREMR-71" value="" style="rounded=0;whiteSpace=wrap;html=1;" parent="1" vertex="1">
          <mxGeometry x="652.5" y="215" width="40" height="80" as="geometry" />
        </mxCell>
        <mxCell id="kx_KfZfGUG_8lvPHREMR-72" value="" style="endArrow=none;html=1;rounded=0;exitX=0.5;exitY=1;exitDx=0;exitDy=0;entryX=0.5;entryY=0;entryDx=0;entryDy=0;" parent="1" source="kx_KfZfGUG_8lvPHREMR-26" target="kx_KfZfGUG_8lvPHREMR-73" edge="1">
          <mxGeometry width="50" height="50" relative="1" as="geometry">
            <mxPoint x="-511" y="180" as="sourcePoint" />
            <mxPoint x="-511" y="220" as="targetPoint" />
          </mxGeometry>
        </mxCell>
        <mxCell id="kx_KfZfGUG_8lvPHREMR-73" value="" style="rounded=0;whiteSpace=wrap;html=1;" parent="1" vertex="1">
          <mxGeometry x="119" y="210" width="40" height="80" as="geometry" />
        </mxCell>
        <mxCell id="kx_KfZfGUG_8lvPHREMR-74" value="" style="endArrow=none;html=1;rounded=0;exitX=0.5;exitY=1;exitDx=0;exitDy=0;entryX=0.5;entryY=0;entryDx=0;entryDy=0;" parent="1" source="kx_KfZfGUG_8lvPHREMR-27" target="kx_KfZfGUG_8lvPHREMR-75" edge="1">
          <mxGeometry width="50" height="50" relative="1" as="geometry">
            <mxPoint x="-501" y="190" as="sourcePoint" />
            <mxPoint x="-501" y="230" as="targetPoint" />
          </mxGeometry>
        </mxCell>
        <mxCell id="kx_KfZfGUG_8lvPHREMR-75" value="" style="rounded=0;whiteSpace=wrap;html=1;" parent="1" vertex="1">
          <mxGeometry x="-21" y="210" width="40" height="80" as="geometry" />
        </mxCell>
        <mxCell id="kx_KfZfGUG_8lvPHREMR-76" value="" style="endArrow=none;html=1;rounded=0;exitX=0.5;exitY=1;exitDx=0;exitDy=0;entryX=0.5;entryY=0;entryDx=0;entryDy=0;" parent="1" source="kx_KfZfGUG_8lvPHREMR-19" target="kx_KfZfGUG_8lvPHREMR-77" edge="1">
          <mxGeometry width="50" height="50" relative="1" as="geometry">
            <mxPoint x="870" y="265" as="sourcePoint" />
            <mxPoint x="700" y="245" as="targetPoint" />
          </mxGeometry>
        </mxCell>
        <mxCell id="kx_KfZfGUG_8lvPHREMR-77" value="" style="rounded=0;whiteSpace=wrap;html=1;" parent="1" vertex="1">
          <mxGeometry x="912.5" y="215" width="40" height="80" as="geometry" />
        </mxCell>
        <mxCell id="kx_KfZfGUG_8lvPHREMR-78" value="" style="endArrow=none;html=1;rounded=0;exitX=0.5;exitY=1;exitDx=0;exitDy=0;" parent="1" source="kx_KfZfGUG_8lvPHREMR-18" target="kx_KfZfGUG_8lvPHREMR-79" edge="1">
          <mxGeometry width="50" height="50" relative="1" as="geometry">
            <mxPoint x="800" y="175" as="sourcePoint" />
            <mxPoint x="800" y="215" as="targetPoint" />
          </mxGeometry>
        </mxCell>
        <mxCell id="kx_KfZfGUG_8lvPHREMR-79" value="" style="rounded=0;whiteSpace=wrap;html=1;" parent="1" vertex="1">
          <mxGeometry x="782.5" y="215" width="40" height="80" as="geometry" />
        </mxCell>
        <mxCell id="kx_KfZfGUG_8lvPHREMR-83" value="" style="endArrow=none;html=1;rounded=0;exitX=0.5;exitY=0;exitDx=0;exitDy=0;entryX=0.5;entryY=1;entryDx=0;entryDy=0;" parent="1" source="kx_KfZfGUG_8lvPHREMR-71" target="kx_KfZfGUG_8lvPHREMR-14" edge="1">
          <mxGeometry width="50" height="50" relative="1" as="geometry">
            <mxPoint x="980" y="185" as="sourcePoint" />
            <mxPoint x="1030" y="135" as="targetPoint" />
          </mxGeometry>
        </mxCell>
        <mxCell id="kx_KfZfGUG_8lvPHREMR-84" value="" style="endArrow=none;html=1;rounded=0;exitX=0.5;exitY=1;exitDx=0;exitDy=0;entryX=0.5;entryY=0;entryDx=0;entryDy=0;" parent="1" source="kx_KfZfGUG_8lvPHREMR-20" target="kx_KfZfGUG_8lvPHREMR-85" edge="1">
          <mxGeometry width="50" height="50" relative="1" as="geometry">
            <mxPoint x="1055" y="175" as="sourcePoint" />
            <mxPoint x="1055" y="215" as="targetPoint" />
          </mxGeometry>
        </mxCell>
        <mxCell id="kx_KfZfGUG_8lvPHREMR-85" value="" style="rounded=0;whiteSpace=wrap;html=1;" parent="1" vertex="1">
          <mxGeometry x="1037.5" y="215" width="40" height="80" as="geometry" />
        </mxCell>
        <mxCell id="kx_KfZfGUG_8lvPHREMR-86" value="" style="endArrow=none;html=1;rounded=0;exitX=0.5;exitY=1;exitDx=0;exitDy=0;entryX=0.5;entryY=0;entryDx=0;entryDy=0;" parent="1" source="kx_KfZfGUG_8lvPHREMR-33" target="kx_KfZfGUG_8lvPHREMR-87" edge="1">
          <mxGeometry width="50" height="50" relative="1" as="geometry">
            <mxPoint x="-1400" y="195" as="sourcePoint" />
            <mxPoint x="-2050" y="245" as="targetPoint" />
          </mxGeometry>
        </mxCell>
        <mxCell id="kx_KfZfGUG_8lvPHREMR-87" value="" style="rounded=0;whiteSpace=wrap;html=1;" parent="1" vertex="1">
          <mxGeometry x="-980" y="215" width="40" height="80" as="geometry" />
        </mxCell>
        <mxCell id="kx_KfZfGUG_8lvPHREMR-88" value="" style="endArrow=none;html=1;rounded=0;exitX=0.5;exitY=1;exitDx=0;exitDy=0;entryX=0.5;entryY=0;entryDx=0;entryDy=0;" parent="1" source="kx_KfZfGUG_8lvPHREMR-34" target="kx_KfZfGUG_8lvPHREMR-89" edge="1">
          <mxGeometry width="50" height="50" relative="1" as="geometry">
            <mxPoint x="-1390" y="205" as="sourcePoint" />
            <mxPoint x="-2040" y="255" as="targetPoint" />
          </mxGeometry>
        </mxCell>
        <mxCell id="kx_KfZfGUG_8lvPHREMR-89" value="" style="rounded=0;whiteSpace=wrap;html=1;" parent="1" vertex="1">
          <mxGeometry x="-1120" y="215" width="40" height="80" as="geometry" />
        </mxCell>
        <mxCell id="kx_KfZfGUG_8lvPHREMR-90" value="" style="endArrow=none;html=1;rounded=0;exitX=0.5;exitY=1;exitDx=0;exitDy=0;entryX=0.5;entryY=0;entryDx=0;entryDy=0;" parent="1" source="kx_KfZfGUG_8lvPHREMR-25" target="kx_KfZfGUG_8lvPHREMR-91" edge="1">
          <mxGeometry width="50" height="50" relative="1" as="geometry">
            <mxPoint x="279" y="170" as="sourcePoint" />
            <mxPoint x="-371" y="220" as="targetPoint" />
          </mxGeometry>
        </mxCell>
        <mxCell id="kx_KfZfGUG_8lvPHREMR-91" value="" style="rounded=0;whiteSpace=wrap;html=1;" parent="1" vertex="1">
          <mxGeometry x="259" y="210" width="40" height="80" as="geometry" />
        </mxCell>
        <mxCell id="kx_KfZfGUG_8lvPHREMR-92" value="" style="endArrow=none;html=1;rounded=0;exitX=0.5;exitY=1;exitDx=0;exitDy=0;entryX=0.5;entryY=0;entryDx=0;entryDy=0;" parent="1" source="kx_KfZfGUG_8lvPHREMR-32" target="kx_KfZfGUG_8lvPHREMR-93" edge="1">
          <mxGeometry width="50" height="50" relative="1" as="geometry">
            <mxPoint x="-820" y="185" as="sourcePoint" />
            <mxPoint x="-1910" y="245" as="targetPoint" />
          </mxGeometry>
        </mxCell>
        <mxCell id="kx_KfZfGUG_8lvPHREMR-93" value="" style="rounded=0;whiteSpace=wrap;html=1;" parent="1" vertex="1">
          <mxGeometry x="-840" y="215" width="40" height="80" as="geometry" />
        </mxCell>
        <mxCell id="kx_KfZfGUG_8lvPHREMR-94" value="" style="endArrow=none;html=1;rounded=0;entryX=0.5;entryY=0;entryDx=0;entryDy=0;exitX=0.5;exitY=1;exitDx=0;exitDy=0;" parent="1" source="kx_KfZfGUG_8lvPHREMR-46" target="kx_KfZfGUG_8lvPHREMR-95" edge="1">
          <mxGeometry width="50" height="50" relative="1" as="geometry">
            <mxPoint x="1632" y="275" as="sourcePoint" />
            <mxPoint x="-180" y="255" as="targetPoint" />
          </mxGeometry>
        </mxCell>
        <mxCell id="kx_KfZfGUG_8lvPHREMR-95" value="" style="rounded=0;whiteSpace=wrap;html=1;" parent="1" vertex="1">
          <mxGeometry x="1690" y="227.5" width="40" height="80" as="geometry" />
        </mxCell>
        <mxCell id="kx_KfZfGUG_8lvPHREMR-96" value="" style="endArrow=none;html=1;rounded=0;exitX=0.5;exitY=1;exitDx=0;exitDy=0;entryX=0.5;entryY=0;entryDx=0;entryDy=0;" parent="1" source="kx_KfZfGUG_8lvPHREMR-47" target="kx_KfZfGUG_8lvPHREMR-97" edge="1">
          <mxGeometry width="50" height="50" relative="1" as="geometry">
            <mxPoint x="920" y="205" as="sourcePoint" />
            <mxPoint x="-170" y="265" as="targetPoint" />
          </mxGeometry>
        </mxCell>
        <mxCell id="kx_KfZfGUG_8lvPHREMR-97" value="" style="rounded=0;whiteSpace=wrap;html=1;" parent="1" vertex="1">
          <mxGeometry x="1550" y="227.5" width="40" height="80" as="geometry" />
        </mxCell>
        <mxCell id="kx_KfZfGUG_8lvPHREMR-98" value="" style="endArrow=none;html=1;rounded=0;exitX=0.5;exitY=1;exitDx=0;exitDy=0;entryX=0.5;entryY=0;entryDx=0;entryDy=0;" parent="1" source="kx_KfZfGUG_8lvPHREMR-45" target="kx_KfZfGUG_8lvPHREMR-99" edge="1">
          <mxGeometry width="50" height="50" relative="1" as="geometry">
            <mxPoint x="1430" y="185" as="sourcePoint" />
            <mxPoint x="340" y="245" as="targetPoint" />
          </mxGeometry>
        </mxCell>
        <mxCell id="kx_KfZfGUG_8lvPHREMR-99" value="" style="rounded=0;whiteSpace=wrap;html=1;" parent="1" vertex="1">
          <mxGeometry x="1410" y="227.5" width="40" height="80" as="geometry" />
        </mxCell>
        <mxCell id="kx_KfZfGUG_8lvPHREMR-100" value="" style="endArrow=none;html=1;rounded=0;entryX=0.5;entryY=0;entryDx=0;entryDy=0;exitX=0.5;exitY=1;exitDx=0;exitDy=0;" parent="1" source="kx_KfZfGUG_8lvPHREMR-60" target="kx_KfZfGUG_8lvPHREMR-101" edge="1">
          <mxGeometry width="50" height="50" relative="1" as="geometry">
            <mxPoint x="-2500" y="200" as="sourcePoint" />
            <mxPoint x="-4390" y="265" as="targetPoint" />
          </mxGeometry>
        </mxCell>
        <mxCell id="kx_KfZfGUG_8lvPHREMR-101" value="" style="rounded=0;whiteSpace=wrap;html=1;" parent="1" vertex="1">
          <mxGeometry x="-1650" y="215" width="40" height="80" as="geometry" />
        </mxCell>
        <mxCell id="kx_KfZfGUG_8lvPHREMR-102" value="" style="endArrow=none;html=1;rounded=0;entryX=0.5;entryY=0;entryDx=0;entryDy=0;exitX=0.5;exitY=1;exitDx=0;exitDy=0;" parent="1" source="kx_KfZfGUG_8lvPHREMR-61" target="kx_KfZfGUG_8lvPHREMR-103" edge="1">
          <mxGeometry width="50" height="50" relative="1" as="geometry">
            <mxPoint x="-2490" y="210" as="sourcePoint" />
            <mxPoint x="-4380" y="275" as="targetPoint" />
          </mxGeometry>
        </mxCell>
        <mxCell id="kx_KfZfGUG_8lvPHREMR-103" value="" style="rounded=0;whiteSpace=wrap;html=1;" parent="1" vertex="1">
          <mxGeometry x="-1790" y="215" width="40" height="80" as="geometry" />
        </mxCell>
        <mxCell id="kx_KfZfGUG_8lvPHREMR-105" value="" style="rounded=0;whiteSpace=wrap;html=1;" parent="1" vertex="1">
          <mxGeometry x="-1930" y="210" width="40" height="85" as="geometry" />
        </mxCell>
        <mxCell id="kx_KfZfGUG_8lvPHREMR-106" value="" style="endArrow=none;html=1;rounded=0;entryX=0.5;entryY=0;entryDx=0;entryDy=0;exitX=0.5;exitY=1;exitDx=0;exitDy=0;" parent="1" source="kx_KfZfGUG_8lvPHREMR-59" target="kx_KfZfGUG_8lvPHREMR-107" edge="1">
          <mxGeometry width="50" height="50" relative="1" as="geometry">
            <mxPoint x="-1490" y="185" as="sourcePoint" />
            <mxPoint x="-4250" y="265" as="targetPoint" />
          </mxGeometry>
        </mxCell>
        <mxCell id="kx_KfZfGUG_8lvPHREMR-107" value="" style="rounded=0;whiteSpace=wrap;html=1;" parent="1" vertex="1">
          <mxGeometry x="-1510" y="215" width="40" height="80" as="geometry" />
        </mxCell>
        <mxCell id="kx_KfZfGUG_8lvPHREMR-108" value="Tánc_ID" style="rhombus;whiteSpace=wrap;html=1;" parent="1" vertex="1">
          <mxGeometry x="-161" y="110" width="80" height="80" as="geometry" />
        </mxCell>
        <mxCell id="kx_KfZfGUG_8lvPHREMR-109" value="" style="endArrow=none;html=1;rounded=0;exitX=0.5;exitY=0;exitDx=0;exitDy=0;entryX=0.5;entryY=1;entryDx=0;entryDy=0;" parent="1" source="kx_KfZfGUG_8lvPHREMR-108" target="kx_KfZfGUG_8lvPHREMR-7" edge="1">
          <mxGeometry relative="1" as="geometry">
            <mxPoint x="-141" y="380" as="sourcePoint" />
            <mxPoint x="-21" y="377" as="targetPoint" />
          </mxGeometry>
        </mxCell>
        <mxCell id="kx_KfZfGUG_8lvPHREMR-110" value="Versenyh_ID" style="rhombus;whiteSpace=wrap;html=1;" parent="1" vertex="1">
          <mxGeometry x="-1260" y="120" width="80" height="80" as="geometry" />
        </mxCell>
        <mxCell id="kx_KfZfGUG_8lvPHREMR-112" value="" style="endArrow=none;html=1;rounded=0;exitX=0.5;exitY=0;exitDx=0;exitDy=0;entryX=0.5;entryY=1;entryDx=0;entryDy=0;" parent="1" source="kx_KfZfGUG_8lvPHREMR-110" target="kx_KfZfGUG_8lvPHREMR-6" edge="1">
          <mxGeometry width="50" height="50" relative="1" as="geometry">
            <mxPoint x="-1190" y="215" as="sourcePoint" />
            <mxPoint x="-1140" y="165" as="targetPoint" />
          </mxGeometry>
        </mxCell>
        <mxCell id="kx_KfZfGUG_8lvPHREMR-113" value="Zene_ID" style="rhombus;whiteSpace=wrap;html=1;" parent="1" vertex="1">
          <mxGeometry x="-2070" y="120" width="81" height="80" as="geometry" />
        </mxCell>
        <mxCell id="kx_KfZfGUG_8lvPHREMR-114" value="" style="endArrow=none;html=1;rounded=0;" parent="1" edge="1">
          <mxGeometry relative="1" as="geometry">
            <mxPoint x="-2060" y="167" as="sourcePoint" />
            <mxPoint x="-1999" y="167" as="targetPoint" />
          </mxGeometry>
        </mxCell>
        <mxCell id="kx_KfZfGUG_8lvPHREMR-115" value="Versenyző_ID" style="rhombus;whiteSpace=wrap;html=1;" parent="1" vertex="1">
          <mxGeometry x="1270" y="120" width="80" height="80" as="geometry" />
        </mxCell>
        <mxCell id="kx_KfZfGUG_8lvPHREMR-116" value="" style="endArrow=none;html=1;rounded=0;exitX=0.5;exitY=0;exitDx=0;exitDy=0;entryX=0.5;entryY=1;entryDx=0;entryDy=0;" parent="1" source="kx_KfZfGUG_8lvPHREMR-115" target="kx_KfZfGUG_8lvPHREMR-5" edge="1">
          <mxGeometry relative="1" as="geometry">
            <mxPoint x="1120" y="165" as="sourcePoint" />
            <mxPoint x="1240" y="162" as="targetPoint" />
          </mxGeometry>
        </mxCell>
        <mxCell id="kx_KfZfGUG_8lvPHREMR-118" value="" style="endArrow=none;html=1;rounded=0;entryX=0.5;entryY=0;entryDx=0;entryDy=0;exitX=0.5;exitY=1;exitDx=0;exitDy=0;" parent="1" source="kx_KfZfGUG_8lvPHREMR-62" target="kx_KfZfGUG_8lvPHREMR-105" edge="1">
          <mxGeometry width="50" height="50" relative="1" as="geometry">
            <mxPoint x="-2040" y="270" as="sourcePoint" />
            <mxPoint x="-1990" y="220" as="targetPoint" />
          </mxGeometry>
        </mxCell>
        <mxCell id="kx_KfZfGUG_8lvPHREMR-119" value="" style="endArrow=none;html=1;rounded=0;exitX=0.5;exitY=0;exitDx=0;exitDy=0;entryX=0.5;entryY=1;entryDx=0;entryDy=0;" parent="1" source="kx_KfZfGUG_8lvPHREMR-113" target="kx_KfZfGUG_8lvPHREMR-8" edge="1">
          <mxGeometry width="50" height="50" relative="1" as="geometry">
            <mxPoint x="-2050" y="265" as="sourcePoint" />
            <mxPoint x="-2000" y="215" as="targetPoint" />
          </mxGeometry>
        </mxCell>
        <mxCell id="kx_KfZfGUG_8lvPHREMR-120" value="" style="endArrow=none;html=1;rounded=0;exitX=0.104;exitY=0.601;exitDx=0;exitDy=0;exitPerimeter=0;entryX=0.875;entryY=0.601;entryDx=0;entryDy=0;entryPerimeter=0;" parent="1" source="kx_KfZfGUG_8lvPHREMR-115" target="kx_KfZfGUG_8lvPHREMR-115" edge="1">
          <mxGeometry relative="1" as="geometry">
            <mxPoint x="1190" y="250" as="sourcePoint" />
            <mxPoint x="1350" y="250" as="targetPoint" />
          </mxGeometry>
        </mxCell>
        <mxCell id="kx_KfZfGUG_8lvPHREMR-121" value="" style="endArrow=none;html=1;rounded=0;exitX=0.084;exitY=0.599;exitDx=0;exitDy=0;exitPerimeter=0;" parent="1" source="kx_KfZfGUG_8lvPHREMR-110" edge="1">
          <mxGeometry relative="1" as="geometry">
            <mxPoint x="-1230" y="245" as="sourcePoint" />
            <mxPoint x="-1190" y="168" as="targetPoint" />
          </mxGeometry>
        </mxCell>
        <mxCell id="kx_KfZfGUG_8lvPHREMR-122" value="" style="endArrow=none;html=1;rounded=0;" parent="1" edge="1">
          <mxGeometry relative="1" as="geometry">
            <mxPoint x="-146" y="159" as="sourcePoint" />
            <mxPoint x="-96" y="159" as="targetPoint" />
          </mxGeometry>
        </mxCell>
        <mxCell id="xYlG9X-z4Cjay5fBSdEK-1" value="FK_Csoport" style="rhombus;whiteSpace=wrap;html=1;" parent="1" vertex="1">
          <mxGeometry x="1130" y="120" width="80" height="80" as="geometry" />
        </mxCell>
        <mxCell id="xYlG9X-z4Cjay5fBSdEK-2" value="" style="endArrow=none;html=1;rounded=0;exitX=0.1;exitY=0.592;exitDx=0;exitDy=0;exitPerimeter=0;dashed=1;" parent="1" edge="1">
          <mxGeometry relative="1" as="geometry">
            <mxPoint x="1139" y="169.3599999999999" as="sourcePoint" />
            <mxPoint x="1201" y="169" as="targetPoint" />
          </mxGeometry>
        </mxCell>
        <mxCell id="xYlG9X-z4Cjay5fBSdEK-3" value="" style="endArrow=none;html=1;rounded=0;entryX=0.5;entryY=0;entryDx=0;entryDy=0;exitX=0.5;exitY=1;exitDx=0;exitDy=0;" parent="1" source="kx_KfZfGUG_8lvPHREMR-4" target="xYlG9X-z4Cjay5fBSdEK-1" edge="1">
          <mxGeometry width="50" height="50" relative="1" as="geometry">
            <mxPoint x="1000" y="265" as="sourcePoint" />
            <mxPoint x="1050" y="215" as="targetPoint" />
          </mxGeometry>
        </mxCell>
        <mxCell id="xYlG9X-z4Cjay5fBSdEK-4" value="FK_Versenyh" style="rhombus;whiteSpace=wrap;html=1;" parent="1" vertex="1">
          <mxGeometry x="-390" y="120" width="80" height="80" as="geometry" />
        </mxCell>
        <mxCell id="xYlG9X-z4Cjay5fBSdEK-6" value="FK_Tánc" style="rhombus;whiteSpace=wrap;html=1;" parent="1" vertex="1">
          <mxGeometry x="359" y="110" width="82" height="80" as="geometry" />
        </mxCell>
        <mxCell id="xYlG9X-z4Cjay5fBSdEK-7" value="" style="endArrow=none;html=1;rounded=0;exitX=0.1;exitY=0.592;exitDx=0;exitDy=0;exitPerimeter=0;dashed=1;" parent="1" source="xYlG9X-z4Cjay5fBSdEK-6" edge="1">
          <mxGeometry relative="1" as="geometry">
            <mxPoint x="311" y="160" as="sourcePoint" />
            <mxPoint x="431" y="157" as="targetPoint" />
          </mxGeometry>
        </mxCell>
        <mxCell id="xYlG9X-z4Cjay5fBSdEK-8" value="" style="endArrow=none;html=1;rounded=0;exitX=0.5;exitY=0;exitDx=0;exitDy=0;entryX=0.5;entryY=1;entryDx=0;entryDy=0;" parent="1" source="xYlG9X-z4Cjay5fBSdEK-6" target="kx_KfZfGUG_8lvPHREMR-7" edge="1">
          <mxGeometry width="50" height="50" relative="1" as="geometry">
            <mxPoint x="189" y="150" as="sourcePoint" />
            <mxPoint x="239" y="100" as="targetPoint" />
          </mxGeometry>
        </mxCell>
        <mxCell id="xYlG9X-z4Cjay5fBSdEK-9" value="" style="endArrow=none;html=1;rounded=0;exitX=0.5;exitY=0;exitDx=0;exitDy=0;entryX=0.5;entryY=1;entryDx=0;entryDy=0;" parent="1" source="xYlG9X-z4Cjay5fBSdEK-4" target="kx_KfZfGUG_8lvPHREMR-6" edge="1">
          <mxGeometry width="50" height="50" relative="1" as="geometry">
            <mxPoint x="-460" y="165" as="sourcePoint" />
            <mxPoint x="-410" y="115" as="targetPoint" />
          </mxGeometry>
        </mxCell>
        <mxCell id="xYlG9X-z4Cjay5fBSdEK-10" value="" style="endArrow=none;html=1;rounded=0;exitX=0.09;exitY=0.601;exitDx=0;exitDy=0;exitPerimeter=0;entryX=0.896;entryY=0.601;entryDx=0;entryDy=0;entryPerimeter=0;dashed=1;" parent="1" source="xYlG9X-z4Cjay5fBSdEK-4" target="xYlG9X-z4Cjay5fBSdEK-4" edge="1">
          <mxGeometry relative="1" as="geometry">
            <mxPoint x="-330" y="140" as="sourcePoint" />
            <mxPoint x="-170" y="140" as="targetPoint" />
          </mxGeometry>
        </mxCell>
        <mxCell id="xYlG9X-z4Cjay5fBSdEK-11" value="FK_Versenyző" style="rhombus;whiteSpace=wrap;html=1;" parent="1" vertex="1">
          <mxGeometry x="2150" y="120" width="80" height="80" as="geometry" />
        </mxCell>
        <mxCell id="xYlG9X-z4Cjay5fBSdEK-12" value="" style="endArrow=none;html=1;rounded=0;exitX=0.09;exitY=0.601;exitDx=0;exitDy=0;exitPerimeter=0;entryX=0.896;entryY=0.601;entryDx=0;entryDy=0;entryPerimeter=0;dashed=1;" parent="1" source="xYlG9X-z4Cjay5fBSdEK-11" target="xYlG9X-z4Cjay5fBSdEK-11" edge="1">
          <mxGeometry relative="1" as="geometry">
            <mxPoint x="2210" y="140" as="sourcePoint" />
            <mxPoint x="2370" y="140" as="targetPoint" />
          </mxGeometry>
        </mxCell>
        <mxCell id="xYlG9X-z4Cjay5fBSdEK-13" value="" style="endArrow=none;html=1;rounded=0;entryX=0.5;entryY=0;entryDx=0;entryDy=0;exitX=0.5;exitY=1;exitDx=0;exitDy=0;" parent="1" source="kx_KfZfGUG_8lvPHREMR-5" target="xYlG9X-z4Cjay5fBSdEK-11" edge="1">
          <mxGeometry width="50" height="50" relative="1" as="geometry">
            <mxPoint x="1960" y="165" as="sourcePoint" />
            <mxPoint x="2010" y="115" as="targetPoint" />
          </mxGeometry>
        </mxCell>
        <mxCell id="xYlG9X-z4Cjay5fBSdEK-14" value="FK_Zene" style="rhombus;whiteSpace=wrap;html=1;" parent="1" vertex="1">
          <mxGeometry x="-1400" y="120" width="80" height="80" as="geometry" />
        </mxCell>
        <mxCell id="xYlG9X-z4Cjay5fBSdEK-15" value="" style="endArrow=none;html=1;rounded=0;exitX=0.09;exitY=0.601;exitDx=0;exitDy=0;exitPerimeter=0;entryX=0.896;entryY=0.601;entryDx=0;entryDy=0;entryPerimeter=0;dashed=1;" parent="1" source="xYlG9X-z4Cjay5fBSdEK-14" target="xYlG9X-z4Cjay5fBSdEK-14" edge="1">
          <mxGeometry relative="1" as="geometry">
            <mxPoint x="-1340" y="140" as="sourcePoint" />
            <mxPoint x="-1180" y="140" as="targetPoint" />
          </mxGeometry>
        </mxCell>
        <mxCell id="xYlG9X-z4Cjay5fBSdEK-16" value="" style="endArrow=none;html=1;rounded=0;exitX=0.5;exitY=0;exitDx=0;exitDy=0;entryX=0.5;entryY=1;entryDx=0;entryDy=0;" parent="1" source="xYlG9X-z4Cjay5fBSdEK-14" target="kx_KfZfGUG_8lvPHREMR-8" edge="1">
          <mxGeometry width="50" height="50" relative="1" as="geometry">
            <mxPoint x="-1720" y="165" as="sourcePoint" />
            <mxPoint x="-1670" y="115" as="targetPoint" />
          </mxGeometry>
        </mxCell>
        <mxCell id="xYlG9X-z4Cjay5fBSdEK-18" value="" style="endArrow=none;dashed=1;html=1;dashPattern=1 3;strokeWidth=2;rounded=0;entryX=0.5;entryY=1;entryDx=0;entryDy=0;exitX=0.5;exitY=1;exitDx=0;exitDy=0;" parent="1" source="kx_KfZfGUG_8lvPHREMR-67" target="xYlG9X-z4Cjay5fBSdEK-11" edge="1">
          <mxGeometry width="50" height="50" relative="1" as="geometry">
            <mxPoint x="830" y="390" as="sourcePoint" />
            <mxPoint x="1660" y="105" as="targetPoint" />
            <Array as="points">
              <mxPoint x="550" y="440" />
              <mxPoint x="2190" y="440" />
            </Array>
          </mxGeometry>
        </mxCell>
        <mxCell id="xYlG9X-z4Cjay5fBSdEK-25" value="" style="endArrow=none;dashed=1;html=1;dashPattern=1 3;strokeWidth=2;rounded=0;exitX=0.5;exitY=1;exitDx=0;exitDy=0;entryX=0.5;entryY=1;entryDx=0;entryDy=0;" parent="1" source="kx_KfZfGUG_8lvPHREMR-115" target="xYlG9X-z4Cjay5fBSdEK-1" edge="1">
          <mxGeometry width="50" height="50" relative="1" as="geometry">
            <mxPoint x="3460" y="145" as="sourcePoint" />
            <mxPoint x="3510" y="95" as="targetPoint" />
            <Array as="points">
              <mxPoint x="1310" y="320" />
              <mxPoint x="1170" y="320" />
            </Array>
          </mxGeometry>
        </mxCell>
        <mxCell id="j7NJEJZYn8zzd7o97uBW-2" value="" style="endArrow=none;dashed=1;html=1;dashPattern=1 3;strokeWidth=2;rounded=0;exitX=0;exitY=0.5;exitDx=0;exitDy=0;entryX=1;entryY=0.5;entryDx=0;entryDy=0;" edge="1" parent="1" source="kx_KfZfGUG_8lvPHREMR-67" target="xYlG9X-z4Cjay5fBSdEK-6">
          <mxGeometry width="50" height="50" relative="1" as="geometry">
            <mxPoint x="640" y="120" as="sourcePoint" />
            <mxPoint x="690" y="70" as="targetPoint" />
            <Array as="points">
              <mxPoint x="510" y="320" />
              <mxPoint x="442" y="320" />
            </Array>
          </mxGeometry>
        </mxCell>
        <mxCell id="j7NJEJZYn8zzd7o97uBW-3" value="" style="endArrow=none;dashed=1;html=1;dashPattern=1 3;strokeWidth=2;rounded=0;exitX=1;exitY=0.5;exitDx=0;exitDy=0;entryX=0;entryY=0.5;entryDx=0;entryDy=0;" edge="1" parent="1" source="kx_KfZfGUG_8lvPHREMR-108" target="xYlG9X-z4Cjay5fBSdEK-1">
          <mxGeometry width="50" height="50" relative="1" as="geometry">
            <mxPoint x="530" y="120" as="sourcePoint" />
            <mxPoint x="580" y="70" as="targetPoint" />
            <Array as="points">
              <mxPoint x="-80" y="400" />
              <mxPoint x="1130" y="400" />
            </Array>
          </mxGeometry>
        </mxCell>
        <mxCell id="j7NJEJZYn8zzd7o97uBW-4" value="" style="endArrow=none;dashed=1;html=1;dashPattern=1 3;strokeWidth=2;rounded=0;exitX=0.5;exitY=1;exitDx=0;exitDy=0;entryX=0.5;entryY=1;entryDx=0;entryDy=0;" edge="1" parent="1" source="kx_KfZfGUG_8lvPHREMR-108" target="xYlG9X-z4Cjay5fBSdEK-14">
          <mxGeometry width="50" height="50" relative="1" as="geometry">
            <mxPoint x="-880" y="120" as="sourcePoint" />
            <mxPoint x="-830" y="70" as="targetPoint" />
            <Array as="points">
              <mxPoint x="-120" y="400" />
              <mxPoint x="-1360" y="400" />
            </Array>
          </mxGeometry>
        </mxCell>
        <mxCell id="j7NJEJZYn8zzd7o97uBW-5" value="" style="endArrow=none;dashed=1;html=1;dashPattern=1 3;strokeWidth=2;rounded=0;exitX=0;exitY=0.5;exitDx=0;exitDy=0;entryX=0.5;entryY=1;entryDx=0;entryDy=0;" edge="1" parent="1" source="kx_KfZfGUG_8lvPHREMR-108" target="xYlG9X-z4Cjay5fBSdEK-4">
          <mxGeometry width="50" height="50" relative="1" as="geometry">
            <mxPoint x="-460" y="120" as="sourcePoint" />
            <mxPoint x="-410" y="70" as="targetPoint" />
            <Array as="points">
              <mxPoint x="-160" y="320" />
              <mxPoint x="-350" y="320" />
            </Array>
          </mxGeometry>
        </mxCell>
        <mxCell id="j7NJEJZYn8zzd7o97uBW-6" value="" style="endArrow=none;dashed=1;html=1;dashPattern=1 3;strokeWidth=2;rounded=0;exitX=0.5;exitY=1;exitDx=0;exitDy=0;entryX=0;entryY=0.5;entryDx=0;entryDy=0;" edge="1" parent="1" source="kx_KfZfGUG_8lvPHREMR-110" target="xYlG9X-z4Cjay5fBSdEK-6">
          <mxGeometry width="50" height="50" relative="1" as="geometry">
            <mxPoint x="-850" y="120" as="sourcePoint" />
            <mxPoint x="-800" y="70" as="targetPoint" />
            <Array as="points">
              <mxPoint x="-1220" y="360" />
              <mxPoint x="360" y="360" />
            </Array>
          </mxGeometry>
        </mxCell>
        <mxCell id="j7NJEJZYn8zzd7o97uBW-7" value="" style="endArrow=none;dashed=1;html=1;dashPattern=1 3;strokeWidth=2;rounded=0;exitX=0.5;exitY=1;exitDx=0;exitDy=0;entryX=0.5;entryY=1;entryDx=0;entryDy=0;" edge="1" parent="1" source="kx_KfZfGUG_8lvPHREMR-113" target="xYlG9X-z4Cjay5fBSdEK-6">
          <mxGeometry width="50" height="50" relative="1" as="geometry">
            <mxPoint x="-1240" y="120" as="sourcePoint" />
            <mxPoint x="-1190" y="70" as="targetPoint" />
            <Array as="points">
              <mxPoint x="-2029" y="440" />
              <mxPoint x="401" y="440" />
            </Array>
          </mxGeometry>
        </mxCell>
        <mxCell id="j7NJEJZYn8zzd7o97uBW-9" value="" style="endArrow=none;html=1;rounded=0;entryX=0.5;entryY=1;entryDx=0;entryDy=0;exitX=0.5;exitY=0;exitDx=0;exitDy=0;" edge="1" parent="1" source="kx_KfZfGUG_8lvPHREMR-26" target="kx_KfZfGUG_8lvPHREMR-7">
          <mxGeometry width="50" height="50" relative="1" as="geometry">
            <mxPoint x="159" y="365" as="sourcePoint" />
            <mxPoint x="209" y="315" as="targetPoint" />
          </mxGeometry>
        </mxCell>
      </root>
    </mxGraphModel>
  </diagram>
</mxfile>
